<?xml version="1.0" encoding="utf-8" ?>
<svg baseProfile="full" height="200mm" version="1.1" viewBox="0,0,200,200" width="200mm" xmlns="http://www.w3.org/2000/svg" xmlns:ev="http://www.w3.org/2001/xml-events" xmlns:xlink="http://www.w3.org/1999/xlink"><defs /><rect fill="#1a1a1a" height="200" width="200" x="0" y="0" /><text alignment-baseline="middle" fill="#e1ed5e" style="dominant-baseline: central; font-size:9.0px; font-family:Arial;" text-anchor="middle" x="100.0" y="100.0">2020</text><line stroke="#e1ed5e" stroke-width="0.3" x1="100.0" x2="100.0" y1="15.0" y2="10.0" /><path d="M 100.0 14.0 a86.0,86.0 0 0,1 42.35913384403234,11.155469271406648" fill="none" id="id13" stroke="none" /><text fill="#e1ed5e" style="font-size:6.75px; font-family:Arial;" text-anchor="middle"><textPath startOffset="22.145653131862478" xlink:href="#id13">January</textPath></text><line stroke="#e1ed5e" stroke-width="0.3" x1="143.13028292997686" x2="145.6673583964461" y1="26.7553504044142" y2="22.446841604673864" /><path d="M 143.63769802327073 25.89364864446614 a86.0,86.0 0 0,1 29.32050498858742,28.57503671076992" fill="none" id="id14" stroke="none" /><text fill="#e1ed5e" style="font-size:6.75px; font-family:Arial;" text-anchor="middle"><textPath startOffset="20.669276256404974" xlink:href="#id14">February</textPath></text><line stroke="#e1ed5e" stroke-width="0.3" x1="172.87174338648825" x2="177.1583165268699" y1="56.24261187166439" y2="53.66864786411523" /><path d="M 173.72905801456457 55.72781907015455 a86.0,86.0 0 0,1 12.242430191666344,42.057860355516425" fill="none" id="id15" stroke="none" /><text fill="#e1ed5e" style="font-size:6.75px; font-family:Arial;" text-anchor="middle"><textPath startOffset="22.145653131862474" xlink:href="#id15">March</textPath></text><line stroke="#e1ed5e" stroke-width="0.3" x1="184.99686870605535" x2="189.99668451229388" y1="99.2704041080226" y2="99.22748670261217" /><path d="M 185.99683186730306 99.26182062694052 a86.0,86.0 0 0,1 -10.086455211305974,41.156179273409016" fill="none" id="id16" stroke="none" /><text fill="#e1ed5e" style="font-size:6.75px; font-family:Arial;" text-anchor="middle"><textPath startOffset="21.40746469413373" xlink:href="#id16">April</textPath></text><line stroke="#e1ed5e" stroke-width="0.3" x1="174.33088141563837" x2="178.70328620479359" y1="141.23008692659167" y2="143.65538615756765" /><path d="M 175.20536237346943 141.71514677278685 a86.0,86.0 0 0,1 -30.301960400862466,31.63118572779886" fill="none" id="id17" stroke="none" /><text fill="#e1ed5e" style="font-size:6.75px; font-family:Arial;" text-anchor="middle"><textPath startOffset="22.145653131862474" xlink:href="#id17">May</textPath></text><line stroke="#e1ed5e" stroke-width="0.3" x1="143.1302829299769" x2="145.6673583964461" y1="173.24464959558577" y2="177.55315839532614" /><path d="M 143.63769802327073 174.10635135553383 a86.0,86.0 0 0,1 -40.685524379131806,11.842963189579606" fill="none" id="id18" stroke="none" /><text fill="#e1ed5e" style="font-size:6.75px; font-family:Arial;" text-anchor="middle"><textPath startOffset="21.407464694133747" xlink:href="#id18">June</textPath></text><path d="M 110.65571695917076 118.09573695890943 l 10.104368520512406 17.15942677378572 a40.91341734618236,40.91341734618236 0 0,0 -0.6082608124309077,0.35117954379448896 l -9.808315240221097 -17.330353214856384" fill="#ff790b" stroke="none" /><path d="M 110.34350942703117 118.27599006163325 l 30.55667440222727 53.99071578474489 a83.03795404002966,83.03795404002966 0 0,0 -1.2465808387974509,0.6914573776845997 l -29.625349375273725 -54.50730607786264" fill="#4cddff" stroke="none" /><path d="M 110.02825361518725 118.45085714620011 l 29.15255698837534 53.63742133768595 a82.04788732394366,82.04788732394366 0 0,0 -1.2432645422649296,0.6619683416022465 l -28.22750363032386 -54.12996014701077" fill="#4ae8ff" stroke="none" /><path d="M 109.71004243097381 118.62028667847754 l 28.81053805353281 55.24800552948421 a83.30882134914751,83.30882134914751 0 0,0 -1.2737235583970294,0.6503723245571901 l -27.8578872734222 -55.73443580571424" fill="#4cdaff" stroke="none" /><path d="M 109.3889696526874 118.78422872680471 l 27.477874120689265 54.97415493952927 a82.45885841363973,82.45885841363973 0 0,0 -1.271593150228924,0.6219999301223181 l -26.530120721198273 -55.43774861974881" fill="#4be3ff" stroke="none" /><path d="M 109.06512990194946 118.94263497670748 l 26.40916272398916 55.1849929269536 a82.17865085248332,82.17865085248332 0 0,0 -1.2777265229594652,0.5980405289393278 l -25.45794748715819 -55.63020968746346" fill="#4ae7ff" stroke="none" /><path d="M 108.73861861582097 119.09545874513695 l 8.484686925872724 18.540572175226377 a41.38977020014826,41.38977020014826 0 0,0 -0.6486104110359223,0.2901151868650038 l -8.165163111981174 -18.68349111300123" fill="#ff810b" stroke="none" /><path d="M 108.4095320186766 119.2426549942271 l 24.446864910631675 55.939211138147506 a82.04788732394366,82.04788732394366 0 0,0 -1.2954381710946816,0.5529455237250986 l -23.482991664366562 -56.350631311532005" fill="#4ae8ff" stroke="none" /><path d="M 108.07796709384702 119.3841803445677 l 23.317719691208538 55.95403874110202 a81.6182357301705,81.6182357301705 0 0,0 -1.297906938457019,0.5278474527463035 l -22.353758291561075 -56.34607345042761" fill="#49edff" stroke="none" /><path d="M 107.74402155503746 119.51999308798841 l 22.674081792503326 57.153497923600156 a82.48687916975538,82.48687916975538 0 0,0 -1.3206846074865033,0.5108691777124912 l -21.689624922523294 -57.53430698945069" fill="#4be3ff" stroke="none" /><path d="M 107.407793817531 119.65005319985036 l 21.63031864140444 57.37699003277286 a82.31875463306153,82.31875463306153 0 0,0 -1.3265504566738104,0.48712770232904273 l -20.6421790330765 -57.739848584110625" fill="#4ae5ff" stroke="none" /><path d="M 106.38641147887787 120.00534299687104 l 18.73599856842631 58.69024866153951 a82.60830244625649,82.60830244625649 0 0,0 -1.3546163214258253,0.41966359906987477 l -17.72574161412886 -59.00322884841603" fill="#4be2ff" stroke="none" /><path d="M 105.69591212413111 120.21278271476187 l 16.47465524531858 58.46273950812296 a81.73965900667162,81.73965900667162 0 0,0 -1.3538368420845834,0.36899425155518084 l -15.468637002299301 -58.736934253822284" fill="#4aecff" stroke="none" /><path d="M 105.3480935250658 120.30758222061773 l 16.044280575197412 60.92274666185318 a84.0,84.0 0 0,0 -1.3975788270984106,0.35525907265892 l -14.996096454873605 -61.189190966347375" fill="#4dd2ff" stroke="none" /><path d="M 104.9986988182912 120.39639698878246 l 14.802670155159149 60.39994565662577 a83.1873980726464,83.1873980726464 0 0,0 -1.389894437987277,0.3280113028786524 l -13.763643563431994 -60.64515310315065" fill="#4cdbff" stroke="none" /><path d="M 104.64783097203107 120.47920084513623 l 13.618937187727541 60.00755011167865 a82.5335804299481,82.5335804299481 0 0,0 -1.3843537580197645,0.30171345831478863 l -12.58682101308864 -60.232495028127154" fill="#4be3ff" stroke="none" /><path d="M 104.29559338865022 120.5559693870025 l 9.552839263121314 45.713794040776534 a67.70126019273536,67.70126019273536 0 0,0 -1.1396492101007123,0.22796175975775793 l -8.766693567489643 -45.871045197197155" fill="#34ff5b" stroke="none" /><path d="M 102.875027216393 120.80226474461374 l 5.515193054545426 39.905189552343536 a61.28450704225352,61.28450704225352 0 0,0 -1.0433604972426933,0.13508390517293267 l -4.829354735411957 -39.99398505371686" fill="#5aff2a" stroke="none" /><path d="M 102.51750503828377 120.84855314841334 l 4.836073058716495 40.04962240830121 a61.340548554484805,61.340548554484805 0 0,0 -1.0464817296754712,0.11726046056214384 l -4.147855427440224 -40.12673862937032" fill="#59ff2a" stroke="none" /><path d="M 102.15924093988457 120.88869738790638 l 1.8832934691387546 18.21915592780626 a39.31623424759081,39.31623424759081 0 0,0 -0.6719339827389218,0.06363284677250412 l -1.5702599230148175 -18.248800530083948" fill="#ff5e08" stroke="none" /><line stroke="#e1ed5e" stroke-width="0.3" x1="101.45913802915013" x2="101.54496967792366" y1="184.9874750549273" y2="189.98673829345242" /><path d="M 101.47630435890484 185.9873277026323 a86.0,86.0 0 0,1 -42.54439059252881,-10.42667462771756" fill="none" id="id19" stroke="none" /><text fill="#e1ed5e" style="font-size:6.75px; font-family:Arial;" text-anchor="middle"><textPath startOffset="22.145653131862474" xlink:href="#id19">July</textPath></text><path d="M 100.36049292484886 120.99690560180557 l 0.34392468071199117 20.031888442938296 a41.03484062268347,41.03484062268347 0 0,0 -0.704417605560841,0.006046577939607431 l -2.4535603439996675e-15 -20.03484062268347" fill="#ff7b0b" stroke="none" /><path d="M 98.91894614982273 120.97215588758144 l -2.0829319254119736 40.40832289325551 a61.46197183098592,61.46197183098592 0 0,0 -1.0532113186884176,-0.06335857757787403 l 2.7762875962328377 -40.36661233785294" fill="#58ff2a" stroke="none" /><path d="M 98.19965949673042 120.92268563240118 l -4.003722394224428 46.52932312617017 a67.70126019273536,67.70126019273536 0 0,0 -1.157048182978924,-0.10957366590656493 l 4.801870140588368 -46.453737704758424" fill="#34ff5b" stroke="none" /><path d="M 97.48249496171623 120.84855314841334 l -5.614278841492138 46.494282647655076 a67.83202372127502,67.83202372127502 0 0,0 -1.1548310888755053,-0.1495160049787917 l 6.411587752258437 -46.39105504647589" fill="#34ff5d" stroke="none" /><path d="M 97.12497278360702 120.80226474461374 l -2.788925585894625 20.179276237806924 a41.37108969607117,41.37108969607117 0 0,0 -0.7026680499162454,-0.10326800563446265 l 3.134918741418556 -20.12842715887358" fill="#ff810b" stroke="none" /><path d="M 96.05791012581884 120.62667999033965 l -4.076512508882679 21.33003601669668 a42.716085989621945,42.716085989621945 0 0,0 -0.7190612629377683,-0.14383239107272655 l 4.442070257351406 -21.256914228961094" fill="#ff970d" stroke="none" /><path d="M 95.70440661134978 120.55596938700252 l -9.566213238089672 45.777793352433626 a67.76664195700519,67.76664195700519 0 0,0 -1.1366646760367496,-0.24773077572445923 l 10.35064033074556 -45.60683111857545" fill="#34ff5c" stroke="none" /><path d="M 94.6519064749342 120.30758222061772 l -11.964823023460793 45.43238186940273 a67.98146775389176,67.98146775389176 0 0,0 -1.1259628036458016,-0.3068861690678439 l 12.74296722804129 -45.22029520619074" fill="#34ff5f" stroke="none" /><line stroke="#e1ed5e" stroke-width="0.3" x1="58.13341422392154" x2="55.670673884152215" y1="173.97424548756322" y2="178.32567169271397" /><path d="M 57.64086615596767 174.84453072859336 a86.0,86.0 0 0,1 -31.369924170532244,-30.572349798747886" fill="none" id="id20" stroke="none" /><text fill="#e1ed5e" style="font-size:6.75px; font-family:Arial;" text-anchor="middle"><textPath startOffset="22.145653131862474" xlink:href="#id20">August</textPath></text><line stroke="#e1ed5e" stroke-width="0.3" x1="26.387840678322732" x2="22.057713659400548" y1="142.50000000000003" y2="145.00000000000006" /><path d="M 25.521815274538298 143.00000000000003 a86.0,86.0 0 0,1 -11.493303480769221,-40.785679425670985" fill="none" id="id21" stroke="none" /><text fill="#e1ed5e" style="font-size:6.75px; font-family:Arial;" text-anchor="middle"><textPath startOffset="21.40746469413373" xlink:href="#id21">September</textPath></text><path d="M 79.407916724674 104.11899336999214 l -20.25015394592103 4.050597927821773 a41.651297257227576,41.651297257227576 0 0,0 -0.13422370079307708,-0.7023151200866298 l 20.316703938996266 -3.702380242701829" fill="#ff850c" stroke="none" /><path d="M 79.34024301695615 103.76489593502545 l -19.912391422797338 3.6287010338918426 a41.24032616753151,41.24032616753151 0 0,0 -0.12094252446224822,-0.6975643418730659 l 19.97174876475182 -3.286343659098184" fill="#ff7e0b" stroke="none" /><line stroke="#e1ed5e" stroke-width="0.3" x1="15.003131293944662" x2="10.003315487706104" y1="100.72959589197737" y2="100.7725132973878" /><path d="M 14.003168132696942 100.73817937305945 a86.0,86.0 0 0,1 10.791469493833604,-42.453326145846276" fill="none" id="id22" stroke="none" /><text fill="#e1ed5e" style="font-size:6.75px; font-family:Arial;" text-anchor="middle"><textPath startOffset="22.145653131862435" xlink:href="#id22">October</textPath></text><path d="M 79.22317932658666 96.9465228501225 l -40.697309820183406 -5.981103054734083 a62.134469977761306,62.134469977761306 0 0,0 0.16414893719741958,-1.053953929309717 l 40.58863939084772 6.67884516597525" fill="#4fff2b" stroke="none" /><path d="M 79.2786578344484 96.59031103205396 l -38.98500104979242 -6.4149670872105595 a60.50926612305411,60.50926612305411 0 0,0 0.17745115226663097,-1.0234910904652752 l 38.86913508003356 7.083251210596428" fill="#64ff29" stroke="none" /><path d="M 79.34024301695615 96.23510406497455 l -40.146395074389275 -7.316010529337067 a61.807561156412156,61.807561156412156 0 0,0 0.19917842040245734,-1.0421856603348614 l 40.01489036170466 8.004098754705243" fill="#53ff2b" stroke="none" /><path d="M 79.407916724674 95.88100663000787 l -19.847165807693752 -3.9699890138352627 a41.24032616753151,41.24032616753151 0 0,0 0.14481695514016862,-0.6930015546736058 l 19.776091141729218 4.310107019794278" fill="#ff7e0b" stroke="none" /><path d="M 79.48165901384962 95.52812308129327 l -39.54305626078112 -8.6182250654216 a61.471312083024465,61.471312083024465 0 0,0 0.23355919190593427,-1.0291048941005518 l 39.389286207317525 9.29576429346116" fill="#57ff2a" stroke="none" /><path d="M 79.64726062577567 94.8264132398404 l -26.74974567123776 -6.799680745561873 a48.6004447739066,48.6004447739066 0 0,0 0.21247771751493452,-0.806812502111317 l 26.629078472918103 7.257873752045975" fill="#fff417" stroke="none" /><path d="M 79.83685265289637 94.1308016681162 l -44.89401732524868 -13.067994150960843 a67.75730170496664,67.75730170496664 0 0,0 0.3346684133077922,-1.114002302899197 l 44.663072591937265 13.836734057450764" fill="#34ff5c" stroke="none" /><path d="M 79.94057633289273 93.78553927170692 l -45.20730899387657 -14.005339885957456 a68.32705707931801,68.32705707931801 0 0,0 0.35671696776164774,-1.117410820846363 l 44.96022731033767 14.779319740495211" fill="#35ff64" stroke="none" /><path d="M 80.05021161711548 93.44210830539832 l -44.4899506086507 -14.624730447768501 a67.83202372127502,67.83202372127502 0 0,0 0.3731232201931554,-1.1030725008497317 l 44.23234196688518 15.386304623092395" fill="#34ff5d" stroke="none" /><path d="M 80.28708602549916 92.7611449362534 l -18.868283561064104 -6.928695076582366 a41.1002223869533,41.1002223869533 0 0,0 0.24888986552492676,-0.6602099381997173 l 18.74656301172474 7.251573294976228" fill="#ff7c0b" stroke="none" /><path d="M 80.68587082218212 91.75594674310238 l -11.932094334168585 -5.093101545069287 a33.973610081541885,33.973610081541885 0 0,0 0.23355420006386116,-0.5344177160275376 l 11.842906252087747 5.297181330872692" fill="#ff0000" stroke="none" /><path d="M 80.9802524753101 91.09779779509293 l -42.398950894179 -19.84484986701004 a67.81334321719793,67.81334321719793 0 0,0 0.5025315615085783,-1.050097686066766 l 42.05204007471052 20.569760055141895" fill="#34ff5d" stroke="none" /><path d="M 81.29705330413844 90.45014215332179 l -20.28070454166515 -10.355472244715266 a43.771534469977766,43.771534469977766 0 0,0 0.34744579070146075,-0.6662731161147553 l 20.09995068198875 10.702091603934507" fill="#ffa80f" stroke="none" /><path d="M 81.46374523516351 90.13048839642627 l -20.627594998497067 -10.983032482790868 a44.36931060044478,44.36931060044478 0 0,0 0.3637325311536899,-0.6692268892740073 l 20.436017117728028 11.335514205539496" fill="#ffb210" stroke="none" /><line stroke="#e1ed5e" stroke-width="0.3" x1="26.387840678322718" x2="22.05771365940052" y1="57.5" y2="55.0" /><path d="M 25.521815274538284 57.0 a86.0,86.0 0 0,1 29.574782752854787,-30.346332500585742" fill="none" id="id23" stroke="none" /><text fill="#e1ed5e" style="font-size:6.75px; font-family:Arial;" text-anchor="middle"><textPath startOffset="21.40746469413373" xlink:href="#id23">November</textPath></text><path d="M 81.99639281039701 89.18935116829357 l -19.7545881112308 -11.862062565375727 a44.04240177909563,44.04240177909563 0 0,0 0.3947709970072662,-0.644828755419162 l 19.54804914976814 12.199428436919428" fill="#ffac0f" stroke="none" /><path d="M 82.37810715431573 88.57770195909679 l -16.906044270485243 -10.958293643096324 a41.14692364714604,41.14692364714604 0 0,0 0.38928038772775037,-0.5894201227384684 l 16.715439443836768 11.246893644173854" fill="#ff7d0b" stroke="none" /><path d="M 83.2033758604659 87.39550010848427 l -18.34803953448292 -13.768710926714295 a43.939659006671604,43.939659006671604 0 0,0 0.45790988044457653,-0.5994187326065777 l 18.108977676684034 14.08165057256176" fill="#ffab0f" stroke="none" /><path d="M 83.42222388311158 87.10902102172516 l -36.93317149125013 -28.719457539886747 a67.78532246108227,67.78532246108227 0 0,0 0.7221834354443172,-0.9124551788123905 l 36.43472162516425 29.34923266261382" fill="#34ff5c" stroke="none" /><path d="M 84.10781606972428 86.27271002978789 l -35.56126494583416 -30.716973687236695 a67.99080800593032,67.99080800593032 0 0,0 0.7705266694250936,-0.8767179061759566 l 35.02872721245048 31.32290387122395" fill="#34ff5f" stroke="none" /><path d="M 84.58840730492382 85.73525988315684 l -34.410464935188614 -31.84981262559792 a67.8880652335063,67.8880652335063 0 0,0 0.7989590133996437,-0.8484667851608502 l 33.8586500880527 32.43582087070328" fill="#34ff5e" stroke="none" /><path d="M 85.08716467003674 85.21462403516908 l -28.713564481872908 -28.468150875501724 a61.43395107487027,61.43395107487027 0 0,0 0.748932754928888,-0.7425316587350357 l 28.220639806814045 28.956862544465434" fill="#58ff2a" stroke="none" /><path d="M 85.60350026404147 84.71141617570332 l -40.25043617801422 -42.74456838526118 a79.71282431430689,79.71282431430689 0 0,0 1.0042685789546113,-0.929536003821059 l 39.51073782774565 43.42922213521461" fill="#46fffa" stroke="none" /><path d="M 88.12776184653039 82.6780497279521 l -12.176744780682395 -17.76623454144217 a42.53862120088955,42.53862120088955 0 0,0 0.6058790238296271,-0.40766244675429403 l 11.869969468755778 17.972646662253574" fill="#ff940d" stroke="none" /><line stroke="#e1ed5e" stroke-width="0.3" x1="56.869717070023135" x2="54.33264160355391" y1="26.7553504044142" y2="22.446841604673864" /><path d="M 56.362301976729285 25.89364864446614 a86.0,86.0 0 0,1 42.16139366436587,-11.88097634709845" fill="none" id="id24" stroke="none" /><text fill="#e1ed5e" style="font-size:6.75px; font-family:Arial;" text-anchor="middle"><textPath startOffset="22.145653131862474" xlink:href="#id24">December</textPath></text></svg>