<?xml version="1.0" encoding="utf-8" ?>
<svg baseProfile="full" height="200mm" version="1.1" viewBox="0,0,200,200" width="200mm" xmlns="http://www.w3.org/2000/svg" xmlns:ev="http://www.w3.org/2001/xml-events" xmlns:xlink="http://www.w3.org/1999/xlink"><defs /><rect fill="#1a1a1a" height="200" width="200" x="0" y="0" /><text alignment-baseline="middle" fill="#e1ed5e" style="dominant-baseline: central; font-size:9.0px; font-family:Arial;" text-anchor="middle" x="100.0" y="100.0">2019</text><line stroke="#e1ed5e" stroke-width="0.3" x1="100.0" x2="100.0" y1="15.0" y2="10.0" /><path d="M 100.0 14.0 a86.0,86.0 0 0,1 42.46469731375804,11.215312516191453" fill="none" id="id1" stroke="none" /><text fill="#e1ed5e" style="font-size:6.75px; font-family:Arial;" text-anchor="middle"><textPath startOffset="22.20632615414155" xlink:href="#id1">January</textPath></text><line stroke="#e1ed5e" stroke-width="0.3" x1="143.23703022742887" x2="145.7803849466894" y1="26.818313649435467" y2="22.513508569990506" /><path d="M 143.74570117128098 25.957352633546478 a86.0,86.0 0 0,1 28.547481713284135,27.462654790039114" fill="none" id="id2" stroke="none" /><text fill="#e1ed5e" style="font-size:6.75px; font-family:Arial;" text-anchor="middle"><textPath startOffset="19.985693538727396" xlink:href="#id2">February</textPath></text><line stroke="#e1ed5e" stroke-width="0.3" x1="172.23445277983987" x2="176.4835382374775" y1="55.19839476539836" y2="52.563006222186495" /><path d="M 173.08426987136738 54.67131705675599 a86.0,86.0 0 0,1 12.851231095245387,41.99856678651699" fill="none" id="id3" stroke="none" /><text fill="#e1ed5e" style="font-size:6.75px; font-family:Arial;" text-anchor="middle"><textPath startOffset="22.20632615414155" xlink:href="#id3">March</textPath></text><line stroke="#e1ed5e" stroke-width="0.3" x1="184.98032266829074" x2="189.97916517819016" y1="98.17113171792111" y2="98.06355123074" /><path d="M 185.9800911702706 98.14961562048488 a86.0,86.0 0 0,1 -9.607161424134198,41.387399972396054" fill="none" id="id4" stroke="none" /><text fill="#e1ed5e" style="font-size:6.75px; font-family:Arial;" text-anchor="middle"><textPath startOffset="21.466115282336823" xlink:href="#id4">April</textPath></text><line stroke="#e1ed5e" stroke-width="0.3" x1="174.80103733775053" x2="179.2010983576182" y1="140.37084112569926" y2="142.7455964860345" /><path d="M 175.68104954172406 140.8457921977663 a86.0,86.0 0 0,1 -30.038265399797805,32.042727171017184" fill="none" id="id5" stroke="none" /><text fill="#e1ed5e" style="font-size:6.75px; font-family:Arial;" text-anchor="middle"><textPath startOffset="22.206326154141568" xlink:href="#id5">May</textPath></text><path d="M 112.63410532772338 116.77436683061366 l 19.42537744917684 25.79117386655027 a53.28823219777778,53.28823219777778 0 0,0 -0.737445770309505,0.5455447510365398 l -18.97854670844877 -26.12172856632658" fill="#c2ff1e" stroke="none" /><path d="M 112.04921762599082 117.19931262002967 l 23.91078965718278 34.130775878640605 a62.672961547123506,62.672961547123506 0 0,0 -0.888890957957405,0.6113873062235967 l -23.31974181460249 -34.537303974229296" fill="#46ff2c" stroke="none" /><path d="M 111.7513745106137 117.40417183066458 l 31.048860287486313 45.984382431318544 a76.48508946322067,76.48508946322067 0 0,0 -1.0974710773526555,0.7273439868006056 l -30.25271451139369 -46.512024439210464" fill="#42ffd3" stroke="none" /><path d="M 111.45004920935366 117.60387380957326 l 34.35014762806101 52.81162142871979 a84.0,84.0 0 0,0 -1.2188727918122781,0.7779422847047646 l -33.4359930342018 -53.39507814224836" fill="#4dd2ff" stroke="none" /><path d="M 111.1453310114006 117.79835938074945 l 29.779969939010748 47.55665011476594 a77.11133200795229,77.11133200795229 0 0,0 -1.1310425799702302,0.6947787311490767 l -28.95694815910821 -48.06221731274339" fill="#42ffdb" stroke="none" /><line stroke="#e1ed5e" stroke-width="0.3" x1="143.8653032363475" x2="146.44561519142675" y1="172.8068346515853" y2="177.08958963109032" /><path d="M 144.38136562736335 173.6633856474863 a86.0,86.0 0 0,1 -40.68145358897372,12.25698825130547" fill="none" id="id6" stroke="none" /><text fill="#e1ed5e" style="font-size:6.75px; font-family:Arial;" text-anchor="middle"><textPath startOffset="21.466115282336833" xlink:href="#id6">June</textPath></text><path d="M 110.21172684928248 118.3499491758327 l 27.285409314981443 49.03048050162852 a77.11133200795229,77.11133200795229 0 0,0 -1.1653989393212796,0.6354684218681986 l -26.437387563791514 -49.492889575256484" fill="#42ffdb" stroke="none" /><path d="M 109.89434966115114 118.52300852407294 l 26.437387563791514 49.492889575256484 a77.11133200795229,77.11133200795229 0 0,0 -1.1761648171641403,0.6153138433580678 l -25.581531844100876 -49.94063283755927" fill="#42ffdb" stroke="none" /><path d="M 109.2508944713604 118.85261126421891 l 25.71123354067959 52.39751599876349 a79.36580516898609,79.36580516898609 0 0,0 -1.231633833263534,0.5912590862312938 l -24.805487039415823 -52.83232936149434" fill="#46fff7" stroke="none" /><path d="M 108.92500713936063 119.00905698771935 l 24.007027156172825 51.1317179013604 a77.48707753479125,77.48707753479125 0 0,0 -1.2122373754585876,0.5564787225844009 l -23.123321784946818 -51.53738369427888" fill="#43ffe0" stroke="none" /><path d="M 108.2653958097858 119.30500536409082 l 22.331357665007758 52.15805624214597 a77.7375745526839,77.7375745526839 0 0,0 -1.2346523706078036,0.5160847910473358 l -21.43023383490249 -52.534726076213275" fill="#43ffe3" stroke="none" /><path d="M 107.59598834532513 119.57807347666477 l 16.261750435536985 41.91340618394554 a65.95751489092888,65.95751489092888 0 0,0 -1.0620095213938414,0.40156112844872416 l -15.53787069338287 -42.1871155625009" fill="#31ff44" stroke="none" /><path d="M 106.57524785965236 119.94407469862006 l 18.588474068440686 56.38265252770921 a80.36779324055667,80.36779324055667 0 0,0 -1.3175674168984888,0.4218434794832303 l -17.615185306451256 -56.694268853852144" fill="#47fcff" stroke="none" /><path d="M 104.13013068566511 120.58985236759428 l 10.124157326888819 50.47174546569332 a72.47713717693837,72.47713717693837 0 0,0 -1.2253205190924896,0.23483559377148971 l -9.253869193224626 -50.63853825781327" fill="#3bff9f" stroke="none" /><path d="M 102.70371172650421 120.8252237178851 l 7.143604144183086 55.02330481325901 a76.48508946322067,76.48508946322067 0 0,0 -1.307066721610082,0.15826757728659463 l -6.195409999521623 -55.13811791927096" fill="#42ffd3" stroke="none" /><path d="M 101.26447882468166 120.96189622390904 l 3.484229922482673 57.75981742810718 a78.86481113320079,78.86481113320079 0 0,0 -1.355768466733473,0.0700777435908561 l -2.48947338733572 -57.81123497846024" fill="#45fff0" stroke="none" /><line stroke="#e1ed5e" stroke-width="0.3" x1="102.19456741930631" x2="102.32365962044197" y1="184.97166512339345" y2="189.96999836594603" /><path d="M 102.22038585953345 185.97133177190398 a86.0,86.0 0 0,1 -42.740103519485714,-10.115201625700543" fill="none" id="id7" stroke="none" /><text fill="#e1ed5e" style="font-size:6.75px; font-family:Arial;" text-anchor="middle"><textPath startOffset="22.20632615414155" xlink:href="#id7">July</textPath></text><path d="M 96.58105272829116 120.7198165907248 l -8.870230993200883 53.75618419661207 a75.48310139165011,75.48310139165011 0 0,0 -1.280161152243608,-0.222572425514952 l 9.79424111691654 -53.595533192576106" fill="#40ffc6" stroke="none" /><path d="M 93.42475214034765 119.94407469862007 l -16.470799807479054 49.95931236632463 a73.60437375745528,73.60437375745528 0 0,0 -1.1998573773989483,-0.4070567675916682 l 17.32832691781523 -49.66839261183484" fill="#3dffae" stroke="none" /><line stroke="#e1ed5e" stroke-width="0.3" x1="58.666819895761336" x2="56.23545636021788" y1="174.27360380694188" y2="178.64263932499728" /><path d="M 58.180547188652646 175.14741091055294 a86.0,86.0 0 0,1 -31.652253787137756,-30.449443065178592" fill="none" id="id8" stroke="none" /><text fill="#e1ed5e" style="font-size:6.75px; font-family:Arial;" text-anchor="middle"><textPath startOffset="22.20632615414155" xlink:href="#id8">August</textPath></text><line stroke="#e1ed5e" stroke-width="0.3" x1="26.63291911575756" x2="22.317208475507996" y1="142.92168965132927" y2="145.44649492493687" /><path d="M 25.769776987707644 143.4266507060508 a86.0,86.0 0 0,1 -11.730757126820373,-40.83630448921669" fill="none" id="id9" stroke="none" /><text fill="#e1ed5e" style="font-size:6.75px; font-family:Arial;" text-anchor="middle"><textPath startOffset="21.46611528233685" xlink:href="#id9">September</textPath></text><path d="M 79.58551787078972 104.9243191809786 l -12.182994798112214 2.9387448864188888 a33.53242130469138,33.53242130469138 0 0,0 -0.13052005430588898,-0.5622769779225834 l 12.231775418348658 -2.728599251147731" fill="#ff0000" stroke="none" /><line stroke="#e1ed5e" stroke-width="0.3" x1="15.007084014347285" x2="10.007500721073583" y1="101.09737516637583" y2="101.16192664675087" /><path d="M 14.007167355692545 101.11028546245083 a86.0,86.0 0 0,1 10.666146001902526,-42.60595125391555" fill="none" id="id10" stroke="none" /><text fill="#e1ed5e" style="font-size:6.75px; font-family:Arial;" text-anchor="middle"><textPath startOffset="22.20632615414155" xlink:href="#id10">October</textPath></text><line stroke="#e1ed5e" stroke-width="0.3" x1="26.266209847984243" x2="21.928928074336255" y1="57.71137044288968" y2="55.22380399835378" /><path d="M 25.398753493254645 57.2138571539825 a86.0,86.0 0 0,1 29.58750427330803,-30.4925239686951" fill="none" id="id11" stroke="none" /><text fill="#e1ed5e" style="font-size:6.75px; font-family:Arial;" text-anchor="middle"><textPath startOffset="21.46611528233685" xlink:href="#id11">November</textPath></text><line stroke="#e1ed5e" stroke-width="0.3" x1="56.76296977257108" x2="54.21961505331056" y1="26.818313649435495" y2="22.513508569990535" /><path d="M 56.25429882871898 25.957352633546506 a86.0,86.0 0 0,1 42.26535254187918,-11.944610805530505" fill="none" id="id12" stroke="none" /><text fill="#e1ed5e" style="font-size:6.75px; font-family:Arial;" text-anchor="middle"><textPath startOffset="22.20632615414155" xlink:href="#id12">December</textPath></text></svg>