<?xml version="1.0" encoding="utf-8" ?>
<svg baseProfile="full" height="200mm" version="1.1" viewBox="0,0,200,200" width="200mm" xmlns="http://www.w3.org/2000/svg" xmlns:ev="http://www.w3.org/2001/xml-events" xmlns:xlink="http://www.w3.org/1999/xlink"><defs /><rect fill="#1a1a1a" height="200" width="200" x="0" y="0" /><text alignment-baseline="middle" fill="#e1ed5e" style="dominant-baseline: central; font-size:9.0px; font-family:Arial;" text-anchor="middle" x="100.0" y="100.0">2020</text><line stroke="#e1ed5e" stroke-width="0.3" x1="100.0" x2="100.0" y1="15.0" y2="10.0" /><path d="M 100.0 14.0 a86.0,86.0 0 0,1 42.35913384403234,11.155469271406648" fill="none" id="id13" stroke="none" /><text fill="#e1ed5e" style="font-size:6.75px; font-family:Arial;" text-anchor="middle"><textPath startOffset="22.145653131862478" xlink:href="#id13">January</textPath></text><line stroke="#e1ed5e" stroke-width="0.3" x1="143.13028292997686" x2="145.6673583964461" y1="26.7553504044142" y2="22.446841604673864" /><path d="M 143.63769802327073 25.89364864446614 a86.0,86.0 0 0,1 29.32050498858742,28.57503671076992" fill="none" id="id14" stroke="none" /><text fill="#e1ed5e" style="font-size:6.75px; font-family:Arial;" text-anchor="middle"><textPath startOffset="20.669276256404974" xlink:href="#id14">February</textPath></text><line stroke="#e1ed5e" stroke-width="0.3" x1="172.87174338648825" x2="177.1583165268699" y1="56.24261187166439" y2="53.66864786411523" /><path d="M 173.72905801456457 55.72781907015455 a86.0,86.0 0 0,1 12.242430191666344,42.057860355516425" fill="none" id="id15" stroke="none" /><text fill="#e1ed5e" style="font-size:6.75px; font-family:Arial;" text-anchor="middle"><textPath startOffset="22.145653131862474" xlink:href="#id15">March</textPath></text><line stroke="#e1ed5e" stroke-width="0.3" x1="184.99686870605535" x2="189.99668451229388" y1="99.2704041080226" y2="99.22748670261217" /><path d="M 185.99683186730306 99.26182062694052 a86.0,86.0 0 0,1 -10.086455211305974,41.156179273409016" fill="none" id="id16" stroke="none" /><text fill="#e1ed5e" style="font-size:6.75px; font-family:Arial;" text-anchor="middle"><textPath startOffset="21.40746469413373" xlink:href="#id16">April</textPath></text><line stroke="#e1ed5e" stroke-width="0.3" x1="174.33088141563837" x2="178.70328620479359" y1="141.23008692659167" y2="143.65538615756765" /><path d="M 175.20536237346943 141.71514677278685 a86.0,86.0 0 0,1 -30.301960400862466,31.63118572779886" fill="none" id="id17" stroke="none" /><text fill="#e1ed5e" style="font-size:6.75px; font-family:Arial;" text-anchor="middle"><textPath startOffset="22.145653131862474" xlink:href="#id17">May</textPath></text><line stroke="#e1ed5e" stroke-width="0.3" x1="143.1302829299769" x2="145.6673583964461" y1="173.24464959558577" y2="177.55315839532614" /><path d="M 143.63769802327073 174.10635135553383 a86.0,86.0 0 0,1 -40.685524379131806,11.842963189579606" fill="none" id="id18" stroke="none" /><text fill="#e1ed5e" style="font-size:6.75px; font-family:Arial;" text-anchor="middle"><textPath startOffset="21.407464694133747" xlink:href="#id18">June</textPath></text><path d="M 110.65571695917076 118.09573695890943 l 10.13886190211082 17.21800407671333 a40.98139597364987,40.98139597364987 0 0,0 -0.6092714524080443,0.3517630370573426 l -9.841797981842376 -17.389514011046845" fill="#ff7b0b" stroke="none" /><path d="M 110.34350942703117 118.27599006163325 l 30.633560152629954 54.12656553865612 a83.19405200367021,83.19405200367021 0 0,0 -1.2489242097619595,0.6927572060564399 l -29.6998917547119 -54.64445566014571" fill="#4cdbff" stroke="none" /><path d="M 110.02825361518725 118.45085714620011 l 29.217568782641624 53.75703571670493 a82.18402744683847,82.18402744683847 0 0,0 -1.2453274617756591,0.6630667300473065 l -28.29045250507941 -54.2506729144748" fill="#4ae7ff" stroke="none" /><path d="M 109.71004243097381 118.62028667847754 l 28.822541346053733 55.27102342558652 a83.33478098266417,83.33478098266417 0 0,0 -1.2741204599044813,0.6505749852949303 l -27.869493664435666 -55.757656362554286" fill="#4cd9ff" stroke="none" /><path d="M 109.3889696526874 118.78422872680471 l 27.511717890248537 55.04186514969026 a82.5345556612649,82.5345556612649 0 0,0 -1.272760472981423,0.6225709261758546 l -26.562797168005044 -55.50602982596334" fill="#4be3ff" stroke="none" /><path d="M 109.06512990194946 118.94263497670748 l 26.46095889770882 55.293227008822704 a82.29864026905847,82.29864026905847 0 0,0 -1.2795921371845966,0.5989137305970739 l -25.507878046652717 -55.73931697099031" fill="#4ae5ff" stroke="none" /><path d="M 108.73861861582097 119.09545874513695 l 8.498596888766581 18.570967954498073 a41.42319759109105,41.42319759109105 0 0,0 -0.6491342446710069,0.2903494909870823 l -8.178549241239947 -18.714121196395006" fill="#ff820c" stroke="none" /><path d="M 108.4095320186766 119.2426549942271 l 24.483326176718503 56.02264165038093 a82.13893716906261,82.13893716906261 0 0,0 -1.2968757394305201,0.5535591361645709 l -23.518015362117552 -56.434675436204905" fill="#4ae7ff" stroke="none" /><path d="M 108.07796709384702 119.3841803445677 l 23.36473909322466 56.06686818912843 a81.74047037545529,81.74047037545529 0 0,0 -1.2998507343846772,0.5286379776280743 l -22.398833897649542 -56.45969342333579" fill="#4aecff" stroke="none" /><path d="M 107.74402155503746 119.51999308798841 l 22.72759786157792 57.28839337695189 a82.63200240354021,82.63200240354021 0 0,0 -1.323008153036746,0.5117679750467686 l -21.740817446047647 -57.6701012401367" fill="#4be1ff" stroke="none" /><path d="M 107.407793817531 119.65005319985036 l 21.657426511211202 57.448896878043975 a82.39560143522209,82.39560143522209 0 0,0 -1.3277888276981828,0.48758244932241834 l -20.66804853185889 -57.81221017637511" fill="#4be4ff" stroke="none" /><path d="M 106.38641147887787 120.00534299687104 l 18.769627635001775 58.79559123361334 a82.71888260546177,82.71888260546177 0 0,0 -1.3564296220753913,0.4202253642462988 l -17.75755738005476 -59.10913318566628" fill="#4be0ff" stroke="none" /><path d="M 105.69591212413111 120.21278271476187 l 16.5143501998008 58.60360289792531 a81.88600853348314,81.88600853348314 0 0,0 -1.3562607986269384,0.36965491168965564 l -15.505908000239165 -58.87845830375911" fill="#4aeaff" stroke="none" /><path d="M 105.3480935250658 120.30758222061773 l 16.044280575197412 60.92274666185318 a84.0,84.0 0 0,0 -1.3975788270984106,0.35525907265892 l -14.996096454873605 -61.189190966347375" fill="#4dd2ff" stroke="none" /><path d="M 104.9986988182912 120.39639698878246 l 14.80875445736759 60.42477168590942 a83.2129587937504,83.2129587937504 0 0,0 -1.390321506328354,0.32811208984429974 l -13.769300797299357 -60.670079919399946" fill="#4cdbff" stroke="none" /><path d="M 104.64783097203107 120.47920084513623 l 13.635649644002216 60.08118827767999 a82.60909126153388,82.60909126153388 0 0,0 -1.3856203176786621,0.3019894990974529 l -12.602266909704417 -60.306409234911165" fill="#4be2ff" stroke="none" /><path d="M 104.29559338865022 120.5559693870025 l 9.578962265961724 45.83880206600138 a67.82896852311367,67.82896852311367 0 0,0 -1.1417989883681268,0.22839177561929264 l -8.79066679206264 -45.99648323828353" fill="#34ff5d" stroke="none" /><path d="M 102.875027216393 120.80226474461374 l 5.530006709296893 40.01237377871129 a61.39271010482178,61.39271010482178 0 0,0 -1.04520263984305,0.13532240741352855 l -4.842326247563068 -40.10140778232522" fill="#58ff2a" stroke="none" /><path d="M 102.51750503828377 120.84855314841334 l 4.848180026703335 40.14988547101661 a61.44153994233004,61.44153994233004 0 0,0 -1.0482046624617787,0.11745351877454348 l -4.158239462640757 -40.227194750298125" fill="#58ff2a" stroke="none" /><path d="M 102.15924093988457 120.88869738790638 l 1.887042834025468 18.25542763193557 a39.352699220612855,39.352699220612855 0 0,0 -0.6725571872502916,0.06369186488767413 l -1.5733860833901612 -18.28513125232843" fill="#ff5f08" stroke="none" /><line stroke="#e1ed5e" stroke-width="0.3" x1="101.45913802915013" x2="101.54496967792366" y1="184.9874750549273" y2="189.98673829345242" /><path d="M 101.47630435890484 185.9873277026323 a86.0,86.0 0 0,1 -42.54439059252881,-10.42667462771756" fill="none" id="id19" stroke="none" /><text fill="#e1ed5e" style="font-size:6.75px; font-family:Arial;" text-anchor="middle"><textPath startOffset="22.145653131862474" xlink:href="#id19">July</textPath></text><path d="M 100.36049292484886 120.99690560180557 l 0.344086193875142 20.041295774972756 a41.04424934111418,41.04424934111418 0 0,0 -0.7045791187239918,0.006047964335860952 l -2.4547125796906927e-15 -20.04424934111418" fill="#ff7c0b" stroke="none" /><path d="M 98.91894614982273 120.97215588758144 l -2.084301752319522 40.43489716930975 a61.488581388922185,61.488581388922185 0 0,0 -1.0536672996270189,-0.06338600825883972 l 2.7781134040789874 -40.39315918322622" fill="#57ff2a" stroke="none" /><path d="M 98.19965949673042 120.92268563240118 l -4.013144819645845 46.63882599222746 a67.81116769828245,67.81116769828245 0 0,0 -1.158926556870739,-0.10975154986705778 l 4.813170939901599 -46.56306268685522" fill="#34ff5d" stroke="none" /><path d="M 97.48249496171623 120.84855314841334 l -5.620066263861665 46.5422108070941 a67.88030003767236,67.88030003767236 0 0,0 -1.1556529866750036,-0.14962241610390395 l 6.418197072427462 -46.4388767947898" fill="#34ff5e" stroke="none" /><path d="M 97.12497278360702 120.80226474461374 l -2.7943787521882952 20.218732632616167 a41.41092114236639,41.41092114236639 0 0,0 -0.7033445678639046,-0.10336743047559353 l 3.141048425659885 -20.167784128841692" fill="#ff820b" stroke="none" /><path d="M 96.05791012581884 120.62667999033965 l -4.086502683403927 21.38230883123778 a42.76930488407695,42.76930488407695 0 0,0 -0.7199571232342447,-0.1440115882220527 l 4.45295629216913 -21.309007846352866" fill="#ff980e" stroke="none" /><path d="M 95.70440661134978 120.55596938700252 l -9.573524612282908 45.81278092469551 a67.80238529771887,67.80238529771887 0 0,0 -1.1372642068917471,-0.24786144068388868 l 10.358551235793792 -45.641688025877905" fill="#34ff5d" stroke="none" /><path d="M 94.6519064749342 120.30758222061772 l -11.987077244907399 45.51688477303832 a68.06885191203865,68.06885191203865 0 0,0 -1.1274101291442373,-0.3072806440684132 l 12.76666877498633 -45.30440363482577" fill="#34ff61" stroke="none" /><line stroke="#e1ed5e" stroke-width="0.3" x1="58.13341422392154" x2="55.670673884152215" y1="173.97424548756322" y2="178.32567169271397" /><path d="M 57.64086615596767 174.84453072859336 a86.0,86.0 0 0,1 -31.369924170532244,-30.572349798747886" fill="none" id="id20" stroke="none" /><text fill="#e1ed5e" style="font-size:6.75px; font-family:Arial;" text-anchor="middle"><textPath startOffset="22.145653131862474" xlink:href="#id20">August</textPath></text><line stroke="#e1ed5e" stroke-width="0.3" x1="26.387840678322732" x2="22.057713659400548" y1="142.50000000000003" y2="145.00000000000006" /><path d="M 25.521815274538298 143.00000000000003 a86.0,86.0 0 0,1 -11.493303480769221,-40.785679425670985" fill="none" id="id21" stroke="none" /><text fill="#e1ed5e" style="font-size:6.75px; font-family:Arial;" text-anchor="middle"><textPath startOffset="21.40746469413373" xlink:href="#id21">September</textPath></text><path d="M 79.407916724674 104.11899336999214 l -20.288185238729724 4.058205251511987 a41.69008192696226,41.69008192696226 0 0,0 -0.13434868662181793,-0.7029690987565861 l 20.3548602176337 -3.7093335877220865" fill="#ff860c" stroke="none" /><path d="M 79.34024301695615 103.76489593502545 l -19.991117468897972 3.6430475419939548 a41.320348743279624,41.320348743279624 0 0,0 -0.12117720088759057,-0.6989178931316073 l 20.050709487277796 -3.2993366159417548" fill="#ff800b" stroke="none" /><line stroke="#e1ed5e" stroke-width="0.3" x1="15.003131293944662" x2="10.003315487706104" y1="100.72959589197737" y2="100.7725132973878" /><path d="M 14.003168132696942 100.73817937305945 a86.0,86.0 0 0,1 10.791469493833604,-42.453326145846276" fill="none" id="id22" stroke="none" /><text fill="#e1ed5e" style="font-size:6.75px; font-family:Arial;" text-anchor="middle"><textPath startOffset="22.145653131862435" xlink:href="#id22">October</textPath></text><path d="M 79.22317932658666 96.9465228501225 l -40.90244074790737 -6.011250237038054 a62.34180436977036,62.34180436977036 0 0,0 0.16469668018299488,-1.0574708322014161 l 40.79322257558611 6.71250925117092" fill="#4cff2c" stroke="none" /><path d="M 79.2786578344484 96.59031103205396 l -39.05974384839988 -6.427265986278446 a60.585014052807715,60.585014052807715 0 0,0 0.1776732927465577,-1.024772337721957 l 38.94365573816109 7.096831356920996" fill="#62ff29" stroke="none" /><path d="M 79.34024301695615 96.23510406497455 l -40.18232097273589 -7.32255742477046 a61.844078713995145,61.844078713995145 0 0,0 0.1992961003319069,-1.0428014114525463 l 40.05069858012182 8.011261401256322" fill="#53ff2b" stroke="none" /><path d="M 79.407916724674 95.88100663000787 l -19.823541075238904 -3.965263405695073 a41.21623344340455,41.21623344340455 0 0,0 0.14473235263399722,-0.6925967010551238 l 19.75255101178054 4.304976558035605" fill="#ff7e0b" stroke="none" /><path d="M 79.48165901384962 95.52812308129327 l -39.64287510287713 -8.63998011746613 a61.57347412845645,61.57347412845645 0 0,0 0.23394735483862594,-1.030815211602859 l 39.48871688648084 9.319229663007999" fill="#56ff2b" stroke="none" /><path d="M 79.64726062577567 94.8264132398404 l -26.847030790386235 -6.8244102424189155 a48.70082376783728,48.70082376783728 0 0,0 0.2129165673982238,-0.8084788865987304 l 26.725924742183285 7.28426963339043" fill="#fff617" stroke="none" /><path d="M 79.83685265289637 94.1308016681162 l -45.00200970833493 -13.099429159779394 a67.86977621134061,67.86977621134061 0 0,0 0.3352239499605009,-1.1158515037375603 l 44.7705094383708 13.870018267107678" fill="#34ff5e" stroke="none" /><path d="M 79.94057633289273 93.78553927170692 l -45.498535757572725 -14.095562681789087 a68.63193932015963,68.63193932015963 0 0,0 0.35830867495827334,-1.1223968209693425 l 45.24986236683719 14.874528536449821" fill="#35ff69" stroke="none" /><path d="M 80.05021161711548 93.44210830539832 l -44.72129109695935 -14.700776661281518 a68.07554260785376,68.07554260785376 0 0,0 0.3744627431227892,-1.1070325623735677 l 44.46234293226419 15.466310898129247" fill="#35ff61" stroke="none" /><path d="M 80.28708602549916 92.7611449362534 l -18.93570952520914 -6.953454824563342 a41.17205069447178,41.17205069447178 0 0,0 0.2493248348939692,-0.6613637461285722 l 18.813554006500734 7.277486850886058" fill="#ff7e0b" stroke="none" /><path d="M 80.68587082218212 91.75594674310238 l -11.90048505609285 -5.079609423862614 a33.939241726982424,33.939241726982424 0 0,0 0.23331793216247004,-0.5338770888318052 l 11.8115332419134 5.283148582470286" fill="#ff0000" stroke="none" /><path d="M 80.9802524753101 91.09779779509293 l -43.263751494050695 -20.249620214092147 a68.7681830526758,68.7681830526758 0 0,0 0.5096074131146026,-1.0648834944966532 l 42.909764822976186 20.989316210653886" fill="#36ff6b" stroke="none" /><path d="M 81.29705330413844 90.45014215332179 l -20.28849658257603 -10.359450916324851 a43.780283511601496,43.780283511601496 0 0,0 0.34751523806540735,-0.666406290592101 l 20.107673275535685 10.70620345002144" fill="#ffa90f" stroke="none" /><path d="M 81.46374523516351 90.13048839642627 l -20.452491121552182 -10.889799531082808 a44.17093280177434,44.17093280177434 0 0,0 0.3621062616025383,-0.6662347364704452 l 20.262539510334292 11.239289101027873" fill="#ffaf10" stroke="none" /><line stroke="#e1ed5e" stroke-width="0.3" x1="26.387840678322718" x2="22.05771365940052" y1="57.5" y2="55.0" /><path d="M 25.521815274538284 57.0 a86.0,86.0 0 0,1 29.574782752854787,-30.346332500585742" fill="none" id="id23" stroke="none" /><text fill="#e1ed5e" style="font-size:6.75px; font-family:Arial;" text-anchor="middle"><textPath startOffset="21.40746469413373" xlink:href="#id23">November</textPath></text><path d="M 81.99639281039701 89.18935116829357 l -19.78946788188091 -11.883006865473906 a44.08308669162112,44.08308669162112 0 0,0 0.39513567338348654,-0.6454244268732242 l 19.58256424404203 12.220968408471672" fill="#ffad10" stroke="none" /><path d="M 82.37810715431573 88.57770195909679 l -16.9167423828348 -10.96522803027038 a41.15967258174166,41.15967258174166 0 0,0 0.3894010020960336,-0.5896027482649495 l 16.726016941818038 11.25401065687439" fill="#ff7e0b" stroke="none" /><path d="M 83.2033758604659 87.39550010848427 l -18.331368744019755 -13.75620085475943 a43.91881633038034,43.91881633038034 0 0,0 0.4576926719449104,-0.5991343997080283 l 18.092524094720538 14.068856167708345" fill="#ffab0f" stroke="none" /><path d="M 83.42222388311158 87.10902102172516 l -36.93942904203768 -28.7243234492276 a67.79324925208319,67.79324925208319 0 0,0 0.7222678873130882,-0.9125618809897579 l 36.44089472408303 29.35420527413204" fill="#34ff5d" stroke="none" /><path d="M 84.10781606972428 86.27271002978789 l -35.53859693224867 -30.697393596992214 a67.96085439556539,67.96085439556539 0 0,0 0.7701872109555056,-0.8763316647510973 l 35.00639865733458 31.30293753955461" fill="#34ff5f" stroke="none" /><path d="M 84.58840730492382 85.73525988315684 l -34.377805720482954 -31.819583744040127 a67.84356344044775,67.84356344044775 0 0,0 0.7984352820404678,-0.847910600606755 l 33.82651460470622 32.40503580459139" fill="#34ff5d" stroke="none" /><path d="M 85.08716467003674 85.21462403516908 l -30.112225200348878 -29.854857300694896 a63.40352120946303,63.40352120946303 0 0,0 0.7729435105634804,-0.7663371954691426 l 29.595289769655423 30.36737450639271" fill="#3fff2d" stroke="none" /><path d="M 85.60350026404147 84.71141617570332 l -41.87444523398766 -44.469209724409154 a82.08174667744626,82.08174667744626 0 0,0 1.0341136423524817,-0.9571601489412025 l 41.104901820321224 45.18148761948272" fill="#4ae8ff" stroke="none" /><line stroke="#e1ed5e" stroke-width="0.3" x1="56.869717070023135" x2="54.33264160355391" y1="26.7553504044142" y2="22.446841604673864" /><path d="M 56.362301976729285 25.89364864446614 a86.0,86.0 0 0,1 42.16139366436587,-11.88097634709845" fill="none" id="id24" stroke="none" /><text fill="#e1ed5e" style="font-size:6.75px; font-family:Arial;" text-anchor="middle"><textPath startOffset="22.145653131862474" xlink:href="#id24">December</textPath></text></svg>